<svg width="419" height="136" viewBox="0 0 419 136" fill="none" xmlns="http://www.w3.org/2000/svg">
<path d="M363.556 14.5891C359.596 14.5889 356.387 11.3787 356.387 7.41919C356.387 3.45991 359.596 0.250478 363.556 0.250244C367.515 0.250244 370.725 3.45976 370.726 7.41919C370.726 11.3788 367.515 14.5891 363.556 14.5891Z" stroke="#6DF5E7" stroke-width="0.5"/>
<path d="M339.812 14.5891C335.853 14.5889 332.644 11.3787 332.644 7.41919C332.644 3.45991 335.853 0.250478 339.812 0.250244C343.772 0.250244 346.982 3.45976 346.982 7.41919C346.982 11.3788 343.772 14.5891 339.812 14.5891Z" stroke="#6DF5E7" stroke-width="0.5"/>
<path d="M316.07 14.5891C312.111 14.5889 308.901 11.3787 308.901 7.41919C308.902 3.45991 312.111 0.250478 316.07 0.250244C320.03 0.250244 323.24 3.45976 323.24 7.41919C323.24 11.3788 320.03 14.5891 316.07 14.5891Z" stroke="#6DF5E7" stroke-width="0.5"/>
<path d="M292.328 14.5891C288.369 14.5889 285.159 11.3787 285.159 7.41919C285.159 3.45991 288.369 0.250478 292.328 0.250244C296.288 0.250244 299.498 3.45976 299.498 7.41919C299.498 11.3788 296.288 14.5891 292.328 14.5891Z" stroke="#6DF5E7" stroke-width="0.5"/>
<path d="M268.586 14.5891C264.627 14.5889 261.417 11.3787 261.417 7.41919C261.417 3.45991 264.627 0.250478 268.586 0.250244C272.545 0.250244 275.756 3.45976 275.756 7.41919C275.756 11.3788 272.546 14.5891 268.586 14.5891Z" stroke="#6DF5E7" stroke-width="0.5"/>
<path d="M244.844 14.5891C240.884 14.5889 237.675 11.3787 237.675 7.41919C237.675 3.45991 240.884 0.250478 244.844 0.250244C248.803 0.250244 252.013 3.45976 252.014 7.41919C252.014 11.3788 248.803 14.5891 244.844 14.5891Z" stroke="#6DF5E7" stroke-width="0.5"/>
<path d="M221.102 14.5891C217.142 14.5889 213.933 11.3787 213.933 7.41919C213.933 3.45991 217.142 0.250478 221.102 0.250244C225.061 0.250244 228.271 3.45976 228.271 7.41919C228.271 11.3788 225.061 14.5891 221.102 14.5891Z" stroke="#6DF5E7" stroke-width="0.5"/>
<path d="M197.358 14.5891C193.399 14.5889 190.189 11.3787 190.189 7.41919C190.19 3.45991 193.399 0.250478 197.358 0.250244C201.318 0.250244 204.528 3.45976 204.528 7.41919C204.528 11.3788 201.318 14.5891 197.358 14.5891Z" stroke="#6DF5E7" stroke-width="0.5"/>
<path d="M173.616 14.5891C169.657 14.5889 166.447 11.3787 166.447 7.41919C166.447 3.45991 169.657 0.250478 173.616 0.250244C177.576 0.250244 180.786 3.45976 180.786 7.41919C180.786 11.3788 177.576 14.5891 173.616 14.5891Z" stroke="#6DF5E7" stroke-width="0.5"/>
<path d="M149.874 14.5891C145.915 14.5889 142.705 11.3787 142.705 7.41919C142.705 3.45991 145.915 0.250478 149.874 0.250244C153.833 0.250244 157.044 3.45976 157.044 7.41919C157.044 11.3788 153.834 14.5891 149.874 14.5891Z" stroke="#6DF5E7" stroke-width="0.5"/>
<path d="M126.133 14.5891C122.173 14.5889 118.964 11.3787 118.964 7.41919C118.964 3.45991 122.174 0.250478 126.133 0.250244C130.092 0.250244 133.303 3.45976 133.303 7.41919C133.303 11.3788 130.092 14.5891 126.133 14.5891Z" stroke="#6DF5E7" stroke-width="0.5"/>
<path d="M102.39 14.5891C98.4302 14.5889 95.2207 11.3787 95.2207 7.41919C95.2209 3.45991 98.4304 0.250478 102.39 0.250244C106.349 0.250244 109.559 3.45976 109.56 7.41919C109.56 11.3788 106.349 14.5891 102.39 14.5891Z" stroke="#6DF5E7" stroke-width="0.5"/>
<path d="M78.6465 14.5891C74.6871 14.5889 71.4775 11.3787 71.4775 7.41919C71.4778 3.45991 74.6872 0.250478 78.6465 0.250244C82.6059 0.250244 85.8162 3.45976 85.8164 7.41919C85.8164 11.3788 82.6061 14.5891 78.6465 14.5891Z" stroke="#6DF5E7" stroke-width="0.5"/>
<path d="M54.9053 14.5891C50.9459 14.5889 47.7363 11.3787 47.7363 7.41919C47.7365 3.45991 50.946 0.250478 54.9053 0.250244C58.8647 0.250244 62.075 3.45976 62.0752 7.41919C62.0752 11.3788 58.8649 14.5891 54.9053 14.5891Z" stroke="#6DF5E7" stroke-width="0.5"/>
<path d="M31.1621 14.5891C27.2027 14.5889 23.9932 11.3787 23.9932 7.41919C23.9934 3.45991 27.2028 0.250478 31.1621 0.250244C35.1216 0.250244 38.3318 3.45976 38.332 7.41919C38.332 11.3788 35.1217 14.5891 31.1621 14.5891Z" stroke="#6DF5E7" stroke-width="0.5"/>
<path d="M7.41895 14.5891C3.45955 14.5889 0.25 11.3787 0.25 7.41919C0.25022 3.45991 3.45968 0.250478 7.41895 0.250244C11.3784 0.250244 14.5886 3.45976 14.5889 7.41919C14.5889 11.3788 11.3785 14.5891 7.41895 14.5891Z" stroke="#6DF5E7" stroke-width="0.5"/>
<path d="M410.618 135.197C406.659 135.197 403.449 131.987 403.449 128.027C403.449 124.068 406.659 120.859 410.618 120.859C414.578 120.859 417.788 124.068 417.788 128.027C417.788 131.987 414.578 135.197 410.618 135.197Z" stroke="#6DF5E7" stroke-width="0.5"/>
<path d="M386.875 135.197C382.916 135.197 379.706 131.987 379.706 128.027C379.706 124.068 382.916 120.859 386.875 120.858C390.834 120.858 394.045 124.068 394.045 128.027C394.045 131.987 390.835 135.197 386.875 135.197Z" stroke="#6DF5E7" stroke-width="0.5"/>
<path d="M363.134 135.197C359.174 135.197 355.965 131.987 355.965 128.027C355.965 124.068 359.175 120.859 363.134 120.858C367.093 120.858 370.303 124.068 370.304 128.027C370.304 131.987 367.093 135.197 363.134 135.197Z" stroke="#6DF5E7" stroke-width="0.5"/>
<path d="M339.39 135.197C335.43 135.197 332.221 131.987 332.221 128.027C332.221 124.068 335.43 120.859 339.39 120.858C343.349 120.858 346.559 124.068 346.56 128.027C346.56 131.987 343.349 135.197 339.39 135.197Z" stroke="#6DF5E7" stroke-width="0.5"/>
<path d="M315.649 135.197C311.69 135.197 308.48 131.987 308.48 128.027C308.481 124.068 311.69 120.859 315.649 120.858C319.609 120.858 322.819 124.068 322.819 128.027C322.819 131.987 319.609 135.197 315.649 135.197Z" stroke="#6DF5E7" stroke-width="0.5"/>
<path d="M291.905 135.197C287.946 135.197 284.736 131.987 284.736 128.027C284.737 124.068 287.946 120.859 291.905 120.858C295.865 120.858 299.075 124.068 299.075 128.027C299.075 131.987 295.865 135.197 291.905 135.197Z" stroke="#6DF5E7" stroke-width="0.5"/>
<path d="M268.164 135.197C264.205 135.197 260.995 131.987 260.995 128.027C260.995 124.068 264.205 120.859 268.164 120.858C272.124 120.858 275.334 124.068 275.334 128.027C275.334 131.987 272.124 135.197 268.164 135.197Z" stroke="#6DF5E7" stroke-width="0.5"/>
<path d="M244.421 135.197C240.461 135.197 237.252 131.987 237.252 128.027C237.252 124.068 240.462 120.859 244.421 120.858C248.38 120.858 251.591 124.068 251.591 128.027C251.591 131.987 248.381 135.197 244.421 135.197Z" stroke="#6DF5E7" stroke-width="0.5"/>
<path d="M220.68 135.197C216.72 135.197 213.511 131.987 213.511 128.027C213.511 124.068 216.72 120.859 220.68 120.858C224.639 120.858 227.849 124.068 227.85 128.027C227.85 131.987 224.639 135.197 220.68 135.197Z" stroke="#6DF5E7" stroke-width="0.5"/>
<path d="M196.937 135.197C192.977 135.197 189.768 131.987 189.768 128.027C189.768 124.068 192.977 120.859 196.937 120.858C200.896 120.858 204.106 124.068 204.106 128.027C204.106 131.987 200.896 135.197 196.937 135.197Z" stroke="#6DF5E7" stroke-width="0.5"/>
<path d="M173.194 135.197C169.235 135.197 166.025 131.987 166.025 128.027C166.026 124.068 169.235 120.859 173.194 120.858C177.154 120.858 180.364 124.068 180.364 128.027C180.364 131.987 177.154 135.197 173.194 135.197Z" stroke="#6DF5E7" stroke-width="0.5"/>
<path d="M149.451 135.197C145.492 135.197 142.282 131.987 142.282 128.027C142.282 124.068 145.492 120.859 149.451 120.858C153.411 120.858 156.621 124.068 156.621 128.027C156.621 131.987 153.411 135.197 149.451 135.197Z" stroke="#6DF5E7" stroke-width="0.5"/>
<path d="M125.709 135.197C121.75 135.197 118.54 131.987 118.54 128.027C118.54 124.068 121.75 120.859 125.709 120.858C129.668 120.858 132.879 124.068 132.879 128.027C132.879 131.987 129.669 135.197 125.709 135.197Z" stroke="#6DF5E7" stroke-width="0.5"/>
<path d="M101.967 135.197C98.0074 135.197 94.7979 131.987 94.7979 128.027C94.7981 124.068 98.0075 120.859 101.967 120.858C105.926 120.858 109.136 124.068 109.137 128.027C109.137 131.987 105.926 135.197 101.967 135.197Z" stroke="#6DF5E7" stroke-width="0.5"/>
<path d="M78.2246 135.197C74.2652 135.197 71.0557 131.987 71.0557 128.027C71.0559 124.068 74.2653 120.859 78.2246 120.858C82.1841 120.858 85.3943 124.068 85.3945 128.027C85.3945 131.987 82.1842 135.197 78.2246 135.197Z" stroke="#6DF5E7" stroke-width="0.5"/>
<path d="M54.4824 135.197C50.523 135.197 47.3135 131.987 47.3135 128.027C47.3137 124.068 50.5232 120.859 54.4824 120.858C58.4419 120.858 61.6521 124.068 61.6523 128.027C61.6523 131.987 58.442 135.197 54.4824 135.197Z" stroke="#6DF5E7" stroke-width="0.5"/>
<path d="M387.087 54.1328C383.128 54.1326 379.918 50.9224 379.918 46.9629C379.918 43.0036 383.128 39.7942 387.087 39.7939C391.046 39.7939 394.257 43.0035 394.257 46.9629C394.257 50.9225 391.047 54.1328 387.087 54.1328Z" stroke="#6DF5E7" stroke-width="0.5"/>
<path d="M363.345 54.1331C359.385 54.1328 356.176 50.9226 356.176 46.9631C356.176 43.0039 359.385 39.7944 363.345 39.7942C367.304 39.7942 370.514 43.0037 370.515 46.9631C370.515 50.9227 367.304 54.1331 363.345 54.1331Z" stroke="#6DF5E7" stroke-width="0.5"/>
<path d="M339.602 54.1331C335.642 54.1328 332.433 50.9226 332.433 46.9631C332.433 43.0039 335.642 39.7944 339.602 39.7942C343.561 39.7942 346.771 43.0037 346.771 46.9631C346.771 50.9227 343.561 54.1331 339.602 54.1331Z" stroke="#6DF5E7" stroke-width="0.5"/>
<path d="M315.859 54.1331C311.9 54.1328 308.69 50.9226 308.69 46.9631C308.691 43.0039 311.9 39.7944 315.859 39.7942C319.819 39.7942 323.029 43.0037 323.029 46.9631C323.029 50.9227 319.819 54.1331 315.859 54.1331Z" stroke="#6DF5E7" stroke-width="0.5"/>
<path d="M292.117 54.1331C288.158 54.1328 284.948 50.9226 284.948 46.9631C284.948 43.0039 288.158 39.7944 292.117 39.7942C296.077 39.7942 299.287 43.0037 299.287 46.9631C299.287 50.9227 296.077 54.1331 292.117 54.1331Z" stroke="#6DF5E7" stroke-width="0.5"/>
<path d="M268.375 54.1331C264.416 54.1328 261.206 50.9226 261.206 46.9631C261.206 43.0039 264.416 39.7944 268.375 39.7942C272.334 39.7942 275.545 43.0037 275.545 46.9631C275.545 50.9227 272.335 54.1331 268.375 54.1331Z" stroke="#6DF5E7" stroke-width="0.5"/>
<path d="M244.632 54.1331C240.672 54.1328 237.463 50.9226 237.463 46.9631C237.463 43.0039 240.673 39.7944 244.632 39.7942C248.591 39.7942 251.802 43.0037 251.802 46.9631C251.802 50.9227 248.591 54.1331 244.632 54.1331Z" stroke="#6DF5E7" stroke-width="0.5"/>
<path d="M220.89 54.1331C216.93 54.1328 213.721 50.9226 213.721 46.9631C213.721 43.0039 216.93 39.7944 220.89 39.7942C224.849 39.7942 228.059 43.0037 228.06 46.9631C228.06 50.9227 224.849 54.1331 220.89 54.1331Z" stroke="#6DF5E7" stroke-width="0.5"/>
<path d="M197.147 54.1331C193.188 54.1328 189.979 50.9226 189.979 46.9631C189.979 43.0039 193.188 39.7944 197.147 39.7942C201.107 39.7942 204.317 43.0037 204.317 46.9631C204.317 50.9227 201.107 54.1331 197.147 54.1331Z" stroke="#6DF5E7" stroke-width="0.5"/>
<path d="M173.404 54.1331C169.445 54.1328 166.235 50.9226 166.235 46.9631C166.236 43.0039 169.445 39.7944 173.404 39.7942C177.364 39.7942 180.574 43.0037 180.574 46.9631C180.574 50.9227 177.364 54.1331 173.404 54.1331Z" stroke="#6DF5E7" stroke-width="0.5"/>
<path d="M149.662 54.1331C145.703 54.1328 142.493 50.9226 142.493 46.9631C142.493 43.0039 145.703 39.7944 149.662 39.7942C153.622 39.7942 156.832 43.0037 156.832 46.9631C156.832 50.9227 153.622 54.1331 149.662 54.1331Z" stroke="#6DF5E7" stroke-width="0.5"/>
<path d="M125.92 54.1331C121.961 54.1328 118.751 50.9226 118.751 46.9631C118.751 43.0039 121.961 39.7944 125.92 39.7942C129.879 39.7942 133.09 43.0037 133.09 46.9631C133.09 50.9227 129.88 54.1331 125.92 54.1331Z" stroke="#6DF5E7" stroke-width="0.5"/>
<path d="M102.178 54.1331C98.2183 54.1328 95.0088 50.9226 95.0088 46.9631C95.009 43.0039 98.2185 39.7944 102.178 39.7942C106.137 39.7942 109.347 43.0037 109.348 46.9631C109.348 50.9227 106.137 54.1331 102.178 54.1331Z" stroke="#6DF5E7" stroke-width="0.5"/>
<path d="M78.4355 54.1331C74.4761 54.1328 71.2666 50.9226 71.2666 46.9631C71.2668 43.0039 74.4763 39.7944 78.4355 39.7942C82.395 39.7942 85.6052 43.0037 85.6055 46.9631C85.6055 50.9227 82.3952 54.1331 78.4355 54.1331Z" stroke="#6DF5E7" stroke-width="0.5"/>
<path d="M54.6934 54.1331C50.7339 54.1328 47.5244 50.9226 47.5244 46.9631C47.5246 43.0039 50.7341 39.7944 54.6934 39.7942C58.6528 39.7942 61.8631 43.0037 61.8633 46.9631C61.8633 50.9227 58.653 54.1331 54.6934 54.1331Z" stroke="#6DF5E7" stroke-width="0.5"/>
<path d="M30.9502 54.1331C26.9908 54.1328 23.7812 50.9226 23.7812 46.9631C23.7815 43.0039 26.9909 39.7944 30.9502 39.7942C34.9097 39.7942 38.1199 43.0037 38.1201 46.9631C38.1201 50.9227 34.9098 54.1331 30.9502 54.1331Z" stroke="#6DF5E7" stroke-width="0.5"/>
<path d="M387.086 94.6458C383.127 94.6455 379.917 91.4353 379.917 87.4758C379.917 83.5166 383.127 80.3071 387.086 80.3069C391.045 80.3069 394.256 83.5164 394.256 87.4758C394.256 91.4354 391.046 94.6458 387.086 94.6458Z" stroke="#6DF5E7" stroke-width="0.5"/>
<path d="M363.344 94.6458C359.384 94.6455 356.175 91.4353 356.175 87.4758C356.175 83.5166 359.384 80.3071 363.344 80.3069C367.303 80.3069 370.513 83.5164 370.514 87.4758C370.514 91.4354 367.303 94.6458 363.344 94.6458Z" stroke="#6DF5E7" stroke-width="0.5"/>
<path d="M339.602 94.6458C335.642 94.6455 332.433 91.4353 332.433 87.4758C332.433 83.5166 335.642 80.3071 339.602 80.3069C343.561 80.3069 346.771 83.5164 346.771 87.4758C346.771 91.4354 343.561 94.6458 339.602 94.6458Z" stroke="#6DF5E7" stroke-width="0.5"/>
<path d="M315.858 94.6458C311.899 94.6455 308.689 91.4353 308.689 87.4758C308.69 83.5166 311.899 80.3071 315.858 80.3069C319.818 80.3069 323.028 83.5164 323.028 87.4758C323.028 91.4354 319.818 94.6458 315.858 94.6458Z" stroke="#6DF5E7" stroke-width="0.5"/>
<path d="M292.117 94.6458C288.158 94.6455 284.948 91.4353 284.948 87.4758C284.948 83.5166 288.158 80.3071 292.117 80.3069C296.077 80.3069 299.287 83.5164 299.287 87.4758C299.287 91.4354 296.077 94.6458 292.117 94.6458Z" stroke="#6DF5E7" stroke-width="0.5"/>
<path d="M268.374 94.6458C264.415 94.6455 261.205 91.4353 261.205 87.4758C261.205 83.5166 264.415 80.3071 268.374 80.3069C272.333 80.3069 275.544 83.5164 275.544 87.4758C275.544 91.4354 272.334 94.6458 268.374 94.6458Z" stroke="#6DF5E7" stroke-width="0.5"/>
<path d="M244.632 94.6458C240.672 94.6455 237.463 91.4353 237.463 87.4758C237.463 83.5166 240.673 80.3071 244.632 80.3069C248.591 80.3069 251.802 83.5164 251.802 87.4758C251.802 91.4354 248.591 94.6458 244.632 94.6458Z" stroke="#6DF5E7" stroke-width="0.5"/>
<path d="M220.889 94.6458C216.929 94.6455 213.72 91.4353 213.72 87.4758C213.72 83.5166 216.929 80.3071 220.889 80.3069C224.848 80.3069 228.058 83.5164 228.059 87.4758C228.059 91.4354 224.848 94.6458 220.889 94.6458Z" stroke="#6DF5E7" stroke-width="0.5"/>
<path d="M197.147 94.6458C193.188 94.6455 189.979 91.4353 189.979 87.4758C189.979 83.5166 193.188 80.3071 197.147 80.3069C201.107 80.3069 204.317 83.5164 204.317 87.4758C204.317 91.4354 201.107 94.6458 197.147 94.6458Z" stroke="#6DF5E7" stroke-width="0.5"/>
<path d="M173.403 94.6458C169.444 94.6455 166.234 91.4353 166.234 87.4758C166.235 83.5166 169.444 80.3071 173.403 80.3069C177.363 80.3069 180.573 83.5164 180.573 87.4758C180.573 91.4354 177.363 94.6458 173.403 94.6458Z" stroke="#6DF5E7" stroke-width="0.5"/>
<path d="M149.662 94.6458C145.703 94.6455 142.493 91.4353 142.493 87.4758C142.493 83.5166 145.703 80.3071 149.662 80.3069C153.622 80.3069 156.832 83.5164 156.832 87.4758C156.832 91.4354 153.622 94.6458 149.662 94.6458Z" stroke="#6DF5E7" stroke-width="0.5"/>
<path d="M125.919 94.6458C121.96 94.6455 118.75 91.4353 118.75 87.4758C118.75 83.5166 121.96 80.3071 125.919 80.3069C129.878 80.3069 133.089 83.5164 133.089 87.4758C133.089 91.4354 129.879 94.6458 125.919 94.6458Z" stroke="#6DF5E7" stroke-width="0.5"/>
<path d="M102.178 94.6458C98.2183 94.6455 95.0088 91.4353 95.0088 87.4758C95.009 83.5166 98.2185 80.3071 102.178 80.3069C106.137 80.3069 109.347 83.5164 109.348 87.4758C109.348 91.4354 106.137 94.6458 102.178 94.6458Z" stroke="#6DF5E7" stroke-width="0.5"/>
<path d="M78.4346 94.6458C74.4752 94.6455 71.2656 91.4353 71.2656 87.4758C71.2659 83.5166 74.4753 80.3071 78.4346 80.3069C82.394 80.3069 85.6043 83.5164 85.6045 87.4758C85.6045 91.4354 82.3942 94.6458 78.4346 94.6458Z" stroke="#6DF5E7" stroke-width="0.5"/>
<path d="M54.6934 94.6458C50.7339 94.6455 47.5244 91.4353 47.5244 87.4758C47.5246 83.5166 50.7341 80.3071 54.6934 80.3069C58.6528 80.3069 61.8631 83.5164 61.8633 87.4758C61.8633 91.4354 58.653 94.6458 54.6934 94.6458Z" stroke="#6DF5E7" stroke-width="0.5"/>
<path d="M30.9502 94.6458C26.9908 94.6455 23.7812 91.4353 23.7812 87.4758C23.7815 83.5166 26.9909 80.3071 30.9502 80.3069C34.9097 80.3069 38.1199 83.5164 38.1201 87.4758C38.1201 91.4354 34.9098 94.6458 30.9502 94.6458Z" stroke="#6DF5E7" stroke-width="0.5"/>
</svg>
