<svg width="464" height="465" viewBox="0 0 464 465" fill="none" xmlns="http://www.w3.org/2000/svg">
<path d="M461.349 252.482C450.109 379.076 338.373 472.589 211.779 461.349C85.1847 450.109 -8.32849 338.373 2.91129 211.779C14.1511 85.1846 125.887 -8.32855 252.482 2.91122" stroke="#141313" stroke-opacity="0.3" stroke-width="4" stroke-linecap="round" stroke-dasharray="4 4"/>
<path d="M461.349 252.482C450.109 379.076 338.373 472.589 211.779 461.349C85.1847 450.109 -8.32849 338.373 2.91129 211.779C14.1511 85.1846 125.887 -8.32855 252.482 2.91122" stroke="black" stroke-opacity="0.2" stroke-width="4" stroke-linecap="round" stroke-dasharray="4 4"/>
<path d="M461.349 252.482C450.109 379.076 338.373 472.589 211.779 461.349C85.1847 450.109 -8.32849 338.373 2.91129 211.779C14.1511 85.1846 125.887 -8.32855 252.482 2.91122" stroke="black" stroke-opacity="0.2" stroke-width="4" stroke-linecap="round" stroke-dasharray="4 4"/>
</svg>
