<svg width="550" height="568" viewBox="0 0 550 568" fill="none" xmlns="http://www.w3.org/2000/svg">
<path d="M164.509 547.813C310.211 603.488 473.459 530.507 529.134 384.805C584.808 239.103 511.827 75.855 366.125 20.1803C220.423 -35.4944 57.1753 37.487 1.50064 183.189" stroke="#141313" stroke-opacity="0.3" stroke-width="3" stroke-linecap="round" stroke-dasharray="4 4"/>
<path d="M164.509 547.813C310.211 603.488 473.459 530.507 529.134 384.805C584.808 239.103 511.827 75.855 366.125 20.1803C220.423 -35.4944 57.1753 37.487 1.50064 183.189" stroke="black" stroke-opacity="0.2" stroke-width="3" stroke-linecap="round" stroke-dasharray="4 4"/>
<path d="M164.509 547.813C310.211 603.488 473.459 530.507 529.134 384.805C584.808 239.103 511.827 75.855 366.125 20.1803C220.423 -35.4944 57.1753 37.487 1.50064 183.189" stroke="black" stroke-opacity="0.2" stroke-width="3" stroke-linecap="round" stroke-dasharray="4 4"/>
</svg>
