<svg width="27" height="27" viewBox="0 0 27 27" fill="none" xmlns="http://www.w3.org/2000/svg">
<g clip-path="url(#clip0_2109_1984)">
<path d="M12.9374 7.46802H7.3125V12.0639H12.9374V7.46802Z" fill="black" fill-opacity="0.8"/>
<path d="M19.6874 3.44684H9V5.17025H19.6874V3.44684Z" fill="black" fill-opacity="0.8"/>
<path d="M21.3752 14.3617H7.3125V15.5107H21.3752V14.3617Z" fill="black" fill-opacity="0.8"/>
<path d="M21.3752 17.8085H7.3125V18.9573H21.3752V17.8085Z" fill="black" fill-opacity="0.8"/>
<path d="M21.3753 7.46802H14.625V8.61705H21.3753V7.46802Z" fill="black" fill-opacity="0.8"/>
<path d="M21.3753 10.9149H14.625V12.0639H21.3753V10.9149Z" fill="black" fill-opacity="0.8"/>
<path d="M24.1874 21.2554V3.44683C24.1874 1.54611 22.6738 0 20.8124 0H2.81259C1.26171 0 0 1.28856 0 2.87245V6.89366H4.49982V23.5532C4.49982 25.4539 6.01371 27 7.87482 27H23.625C25.4861 27 27 25.4539 27 23.5532V21.2554H24.1874ZM1.12509 5.74463V2.87245C1.12509 1.92223 1.8819 1.14904 2.81259 1.14904C3.74301 1.14904 4.50009 1.92195 4.50009 2.87245V5.7449H1.12509V5.74463ZM10.125 23.5532C10.125 24.8205 9.11601 25.851 7.87509 25.851C6.63417 25.851 5.62518 24.8205 5.62518 23.5532V6.89366V5.74463V2.87245C5.62518 2.22334 5.4054 1.63049 5.04846 1.14904H20.8127C22.0531 1.14904 23.0629 2.1795 23.0629 3.44683V21.2554H10.125V23.5532ZM25.8749 23.5532C25.8749 24.8205 24.8654 25.851 23.625 25.851H10.3885C10.9234 25.2407 11.2498 24.435 11.2498 23.5532V22.4041H25.8749V23.5532Z" fill="black" fill-opacity="0.8"/>
</g>
<defs>
<clipPath id="clip0_2109_1984">
<rect width="27" height="27" fill="white"/>
</clipPath>
</defs>
</svg>
