<svg width="100" height="100" viewBox="0 0 100 100" fill="none" xmlns="http://www.w3.org/2000/svg">
<circle cx="50" cy="50" r="50" fill="#1A4D7C"/>
<g clip-path="url(#clip0_1010_566)">
<path d="M25.75 50.8131C24.334 50.8131 23.1875 51.965 23.1875 53.3824C23.1875 54.7991 24.3339 55.9508 25.75 55.9508C27.1661 55.9508 28.3125 54.7991 28.3125 53.3824C28.3125 51.965 27.166 50.8131 25.75 50.8131ZM31.25 50.8131C29.8333 50.8131 28.6875 51.9651 28.6875 53.3824C28.6875 54.799 29.8332 55.9508 31.25 55.9508C32.6667 55.9507 33.8125 54.799 33.8125 53.3824C33.8125 51.9651 32.6659 50.8132 31.25 50.8131ZM36.75 50.8131C35.3341 50.8132 34.1875 51.9651 34.1875 53.3824C34.1875 54.7991 35.334 55.9507 36.75 55.9508C38.1661 55.9508 39.3125 54.7991 39.3125 53.3824C39.3125 51.9651 38.1667 50.8131 36.75 50.8131ZM25.75 45.2965C24.334 45.2965 23.1876 46.4483 23.1875 47.8649C23.1875 49.2823 24.334 50.4342 25.75 50.4342C27.166 50.4342 28.3125 49.2823 28.3125 47.8649C28.3124 46.4475 27.1659 45.2965 25.75 45.2965ZM31.25 45.2965C29.8332 45.2965 28.6876 46.4484 28.6875 47.8649C28.6875 49.2822 29.8333 50.4342 31.25 50.4342C32.6666 50.4341 33.8125 49.2822 33.8125 47.8649C33.8124 46.4476 32.6658 45.2966 31.25 45.2965ZM36.75 45.2965C35.3341 45.2966 34.1876 46.4484 34.1875 47.8649C34.1875 49.2823 35.3341 50.4341 36.75 50.4342C38.166 50.4342 39.3125 49.2823 39.3125 47.8649C39.3124 46.4476 38.1667 45.2965 36.75 45.2965ZM31.25 39.7799C29.8332 39.7799 28.6876 40.9317 28.6875 42.3483C28.6875 43.7649 29.8331 44.9176 31.25 44.9176C32.6668 44.9175 33.8125 43.7648 33.8125 42.3483C33.8124 40.9317 32.6659 39.78 31.25 39.7799ZM22.125 59.5582L21.9756 59.4108C19.5243 56.9953 18.0001 53.6416 18 49.9342C18 42.7195 23.7621 36.8282 30.9082 36.6451L31.25 36.6412C38.4542 36.6414 44.3267 42.4455 44.4854 49.6393L44.4873 49.7301L44.5205 49.8141L47.1689 56.4586C47.1711 56.4662 47.1738 56.4753 47.1768 56.486C47.1858 56.5191 47.1981 56.5653 47.21 56.6149C47.2219 56.6649 47.2326 56.7154 47.2402 56.7594C47.2481 56.8049 47.2498 56.8264 47.25 56.8287C47.25 57.3164 46.8568 57.7086 46.375 57.7086H43.8125V60.9664C43.8125 62.7614 43.249 64.1855 42.2852 65.1588C41.3219 66.1315 39.9111 66.7018 38.125 66.7018H37.625V71.5006H22.125V59.5582Z" stroke="#00C8B3"/>
<path d="M50.5 25.1377C51.6391 25.1377 52.5625 24.2114 52.5625 23.0688C52.5625 21.9263 51.6391 21 50.5 21C49.3609 21 48.4375 21.9263 48.4375 23.0688C48.4375 24.2114 49.3609 25.1377 50.5 25.1377Z" fill="#76C0FC"/>
<path d="M43.9141 26.3471C45.0531 26.3471 45.9766 25.4209 45.9766 24.2783C45.9766 23.1357 45.0531 22.2095 43.9141 22.2095C42.775 22.2095 41.8516 23.1357 41.8516 24.2783C41.8516 25.4209 42.775 26.3471 43.9141 26.3471Z" fill="#76C0FC"/>
<path d="M38.1494 29.6878C39.2885 29.6878 40.2119 28.7616 40.2119 27.619C40.2119 26.4764 39.2885 25.5502 38.1494 25.5502C37.0103 25.5502 36.0869 26.4764 36.0869 27.619C36.0869 28.7616 37.0103 29.6878 38.1494 29.6878Z" fill="#76C0FC"/>
<path d="M33.8701 34.8033C35.0092 34.8033 35.9326 33.8771 35.9326 32.7345C35.9326 31.5919 35.0092 30.6656 33.8701 30.6656C32.731 30.6656 31.8076 31.5919 31.8076 32.7345C31.8076 33.8771 32.731 34.8033 33.8701 34.8033Z" fill="#76C0FC"/>
<path d="M57.0044 26.3471C58.1435 26.3471 59.0669 25.4209 59.0669 24.2783C59.0669 23.1357 58.1435 22.2095 57.0044 22.2095C55.8653 22.2095 54.9419 23.1357 54.9419 24.2783C54.9419 25.4209 55.8653 26.3471 57.0044 26.3471Z" fill="#76C0FC"/>
<path d="M62.7695 29.6878C63.9086 29.6878 64.832 28.7616 64.832 27.619C64.832 26.4764 63.9086 25.5502 62.7695 25.5502C61.6304 25.5502 60.707 26.4764 60.707 27.619C60.707 28.7616 61.6304 29.6878 62.7695 29.6878Z" fill="#76C0FC"/>
<path d="M67.0483 34.8033C68.1874 34.8033 69.1108 33.8771 69.1108 32.7345C69.1108 31.5919 68.1874 30.6656 67.0483 30.6656C65.9093 30.6656 64.9858 31.5919 64.9858 32.7345C64.9858 33.8771 65.9093 34.8033 67.0483 34.8033Z" fill="#76C0FC"/>
<path d="M53.8174 56.4895C53.8141 56.4971 53.808 56.5031 53.8047 56.51C53.809 56.5014 53.8143 56.493 53.8184 56.4836C53.8177 56.4853 53.8181 56.4879 53.8174 56.4895ZM69.75 50.8137C68.3334 50.8137 67.1877 51.9649 67.1875 53.3821C67.1875 54.7987 68.3331 55.9514 69.75 55.9514C71.1661 55.9514 72.3125 54.7988 72.3125 53.3821C72.3123 51.9648 71.1659 50.8137 69.75 50.8137ZM69.75 45.2961C68.3331 45.2961 67.1875 46.4489 67.1875 47.8655C67.1877 49.2826 68.3334 50.4338 69.75 50.4338C71.1658 50.4338 72.3123 49.2827 72.3125 47.8655C72.3125 46.448 71.166 45.2961 69.75 45.2961ZM69.75 39.7795C68.3333 39.7795 67.1877 40.9315 67.1875 42.3479C67.1875 43.7645 68.3331 44.9172 69.75 44.9172C71.1661 44.9172 72.3125 43.7646 72.3125 42.3479C72.3123 40.9314 71.1659 39.7795 69.75 39.7795ZM63.375 66.7024H62.875C61.0889 66.7024 59.6781 66.1312 58.7148 65.1584C57.7511 64.1852 57.1876 62.7618 57.1875 60.967V57.7083H54.625C54.1434 57.7083 53.7502 57.3167 53.75 56.8293C53.75 56.8293 53.7514 56.8074 53.7598 56.759C53.7674 56.715 53.7781 56.6646 53.79 56.6145C53.8018 56.5651 53.8132 56.5197 53.8223 56.4866C53.8249 56.4771 53.8271 56.4683 53.8291 56.4612L56.4785 49.8147L56.5117 49.7307L56.5137 49.6409C56.6727 42.4468 62.5449 36.6418 69.75 36.6418C77.0532 36.6418 83 42.6045 83 49.9338C83 53.6422 81.4748 56.9955 79.0234 59.4104L78.875 59.5579V71.5002H63.375V66.7024Z" stroke="#FD860F"/>
</g>
<defs>
<clipPath id="clip0_1010_566">
<rect width="66" height="51" fill="white" transform="translate(17.5 21)"/>
</clipPath>
</defs>
</svg>
